<?xml version="1.0" standalone="no"?><!DOCTYPE svg PUBLIC "-//W3C//DTD SVG 1.1//EN" "http://www.w3.org/Graphics/SVG/1.1/DTD/svg11.dtd"><svg t="1607711178735" class="icon" viewBox="0 0 1024 1024" version="1.1" xmlns="http://www.w3.org/2000/svg" p-id="6073" xmlns:xlink="http://www.w3.org/1999/xlink" width="200" height="200"><defs><style type="text/css"></style></defs><path d="M922.942 509.314c25.643-10.173 50.22 16.828 37.682 41.398-29.004 56.833-47.862 111.438-56.7 163.817-8.394 49.758-53.417 95.356-110.45 122.44-25.886 12.292-52.218 19.493-75.056 19.95-9.143 0.182-17.816-0.715-25.792-2.753l-87.436 86.219c-11.764 11.6-30.705 11.469-42.307-0.293-11.418-11.575-11.472-30.1-0.259-41.743l0.552-0.557 85.575-84.388c-17.922-59.43-1.496-116.727 46.896-168.244 43.775-46.603 114.275-89.48 211.69-129.544l6.188-2.526c3.113-1.262 6.251-2.52 9.417-3.776zM747.662 238c70.385 0 127.627 56.293 128.765 126.227l0.017 2.123v126.934c0 16.52-13.394 29.912-29.917 29.912-16.286 0-29.533-13.012-29.908-29.206l-0.008-0.706-0.001-79.898-303.757 324.381a52.924 52.924 0 0 1-1.884 1.912c-20.814 20.082-53.839 19.708-74.196-0.677l-0.645-0.657-305.296-316.331 0.001 313.48c0 37.44 30.228 67.912 67.808 68.518l1.141 0.009h347.536c16.522 0 29.916 13.392 29.916 29.912 0 16.283-13.014 29.528-29.21 29.903l-0.706 0.008H199.782c-70.386 0-127.627-56.293-128.765-126.226L71 735.494V366.35c0-70.205 56.538-127.2 126.653-128.333l2.129-0.017h547.88z m127.601 357.247l-3.132 1.51a850.968 850.968 0 0 0-9.231 4.54l-4.52 2.276a786.138 786.138 0 0 0-4.457 2.278l-4.392 2.282c-48.696 25.496-85.472 51.581-110.27 77.981-23.621 25.148-35.866 49.762-37.504 75.023l27.11-26.732c11.764-11.6 30.705-11.468 42.307 0.293 11.418 11.575 11.472 30.101 0.259 41.743l-0.552 0.558-8.54 8.421a191.288 191.288 0 0 0 5.463-2.49 204.053 204.053 0 0 0 5.04-2.479l2.48-1.284a200.56 200.56 0 0 0 16.542-9.74l2.235-1.488c6.653-4.496 12.838-9.282 18.444-14.247l1.847-1.662 1.803-1.674c15.734-14.84 26.242-31.03 28.73-45.778 5.938-35.197 15.817-71.002 29.609-107.416l0.73-1.915zM747.662 297.823h-547.88c-29.066 0-53.905 17.866-64.056 43.125l0.526 0.53 337.886 350.1 327.538-349.773a29.879 29.879 0 0 1 7.745-5.95c-11.125-22.217-34.031-37.594-60.618-38.022l-1.141-0.01z" fill="#2c2c2c" p-id="6074"></path></svg>