<?xml version="1.0" standalone="no"?><!DOCTYPE svg PUBLIC "-//W3C//DTD SVG 1.1//EN" "http://www.w3.org/Graphics/SVG/1.1/DTD/svg11.dtd"><svg t="1607769357577" class="icon" viewBox="0 0 1024 1024" version="1.1" xmlns="http://www.w3.org/2000/svg" p-id="5453" xmlns:xlink="http://www.w3.org/1999/xlink" width="200" height="200"><defs><style type="text/css"></style></defs><path d="M512.299 257.45c-252.843 0-382.678 254.806-382.678 254.806S227.584 767.104 512.3 767.104c257.792 0 382.634-253.867 382.634-253.867S769.067 257.451 512.256 257.451z m0.554 414.08c-92.458 0-159.274-69.674-159.274-159.274s66.816-159.232 159.274-159.232 159.275 69.632 159.275 159.232-66.816 159.275-159.275 159.275z m0-254.847c-52.821 0.128-95.573 44.373-95.573 95.573 0 51.2 42.752 95.573 95.573 95.573 52.822 0 95.574-44.373 95.574-95.573 0-51.2-42.752-95.659-95.574-95.573z" p-id="5454" fill="#1afa29"></path></svg>